<svg width="66" height="64" viewBox="0 0 66 64" fill="none" xmlns="http://www.w3.org/2000/svg">
<path fill-rule="evenodd" clip-rule="evenodd" d="M54.9555 3.59668L18.0091 40.4651L15.4436 51.2176L24.1085 46.6399L61.7004 9.69575C62.4454 8.5744 63.4325 6.84041 64.0156 5.23101C64.312 4.41311 64.4912 3.66165 64.4996 3.05502C64.508 2.44747 64.3476 2.07689 64.0719 1.87059C63.7467 1.62714 63.2008 1.49346 62.4366 1.50025C61.6871 1.5069 60.8039 1.64761 59.8786 1.87088C58.0701 2.30728 56.176 3.04047 54.9555 3.59668ZM17.4025 39.6577L29.3384 27.747L7.10504 12.3873L11.6707 7.18049L42.5223 14.591L54.3757 2.76257L54.4566 2.7253C55.7141 2.14616 57.7152 1.36421 59.644 0.898778C60.6076 0.666271 61.5727 0.507876 62.4277 0.500286C63.2681 0.492827 64.0829 0.629763 64.6711 1.06998C65.309 1.54734 65.5101 2.30196 65.4995 3.06886C65.4889 3.83667 65.2684 4.70891 64.9558 5.57168C64.3284 7.30312 63.278 9.13465 62.5036 10.2938L62.475 10.3366L52.9113 19.7355L57.4811 54.6548L52.2655 59.2088L37.4406 34.9396L26.6534 45.541L27.2027 61.0249L21.8488 63.6962L17.2849 51.3758L13.9585 53.1331L14.8034 49.5918L0.12207 42.0307L6.0036 36.8137L17.4025 39.6577ZM15.0424 48.5901L16.9544 40.5766L6.27289 37.9115L1.87777 41.8101L15.0424 48.5901ZM18.1768 50.9046L22.3995 62.3038L26.1805 60.4173L25.6864 46.4912L24.705 47.4558L18.1768 50.9046ZM38.1729 34.22L52.5009 57.6757L56.4201 54.2536L52.0177 20.6137L38.1729 34.22ZM41.6916 15.4199L12.0244 8.29389L8.59701 12.2026L30.0581 27.0288L41.6916 15.4199Z" fill="#071C35"/>
</svg>
