<svg width="40" height="101" viewBox="0 0 40 101" fill="none" xmlns="http://www.w3.org/2000/svg">
<path fill-rule="evenodd" clip-rule="evenodd" d="M9.46712 16.6122V0H8.29065V22.8161C5.7259 20.5708 3.3122 18.8495 1.2965 17.6737L0.411865 17.1577V100.588H34.7274L34.8774 100.224C36.6048 96.0287 37.673 90.461 38.3113 85.238C38.9507 80.0059 39.1641 75.0729 39.1641 72.1212C39.1641 40.2001 19.6222 21.9638 9.46712 16.6122ZM9.46712 23.8737C19.2264 32.8794 30.6792 49.2897 30.6792 72.1212V72.1304L30.679 72.1396C30.5775 75.3878 30.2429 80.6792 29.5685 86.0132C28.9472 90.9278 28.0308 95.9365 26.7187 99.4118H33.9364C35.5182 95.4058 36.5279 90.1323 37.1435 85.0953C37.7768 79.9133 37.9876 75.0281 37.9876 72.1212C37.9876 41.2858 19.4541 23.4949 9.46712 17.9498V23.8737ZM25.4561 99.4118C26.7972 96.0855 27.7536 90.9892 28.4014 85.8656C29.0698 80.5784 29.4019 75.3293 29.5028 72.1121C29.4997 49.5555 18.1118 33.3774 8.4818 24.5661C5.98081 22.2777 3.60526 20.4928 1.58834 19.2261V38.8057H8.29065V29.697H9.46712V99.4118H25.4561ZM8.29065 99.4118V83.6185H1.58834V90.9269H5.24253V92.1034H1.58834V99.4118H8.29065ZM1.58834 82.4421H8.29065V63.0125H1.58834V72.139H5.24253V73.3155H1.58834V82.4421ZM1.58834 61.836H8.29065V39.9822H1.58834V50.3209H5.24253V51.4973H1.58834V61.836ZM13.1391 34.0806L14.1867 35.3901C19.102 41.5343 26.4368 55.5997 26.4368 72.1212C26.4368 85.2797 23.5967 93.9077 22.1241 96.6425L21.9575 96.9519H13.1391V34.0806ZM14.3156 37.5089V95.7754H21.2473C22.652 92.9264 25.2604 84.6543 25.2604 72.1212C25.2604 57.0616 19.0335 44.0679 14.3156 37.5089Z" fill="#071C35"/>
</svg>
