<svg width="54" height="96" viewBox="0 0 54 96" fill="none" xmlns="http://www.w3.org/2000/svg">
<path fill-rule="evenodd" clip-rule="evenodd" d="M26.25 13.1693C25.5998 13.5092 24.8666 14.2635 24.2681 15.5084C23.5503 17.0014 23 19.2466 23 22.5C23 25.7559 23.5511 28.1564 24.2575 29.8432C24.8765 31.3211 25.6265 32.2766 26.25 32.76V47.5C26.25 58.3765 22.1699 68.4933 17.0441 76.736C11.9183 84.9786 5.76861 91.3118 1.6857 94.6111L0.585693 95.5H53.111L51.7831 94.5879C43.6144 88.9771 27.25 71.6787 27.25 47.5V32.76C27.8735 32.2766 28.6234 31.3211 29.2424 29.8432C29.9488 28.1564 30.5 25.7559 30.5 22.5C30.5 19.2466 29.9496 17.0014 29.2318 15.5084C28.6334 14.2635 27.9001 13.5092 27.25 13.1693V0H26.25V13.1693ZM27.25 31.34V14.393C27.583 14.6993 27.9695 15.1907 28.3306 15.9416C28.967 17.2653 29.5 19.3534 29.5 22.5C29.5 25.6441 28.9678 27.9103 28.32 29.4568C27.9704 30.2915 27.5914 30.9077 27.25 31.34ZM26.25 31.34V14.393C25.9169 14.6993 25.5304 15.1907 25.1693 15.9416C24.533 17.2653 24 19.3534 24 22.5C24 25.6441 24.5322 27.9103 25.1799 29.4568C25.5295 30.2915 25.9086 30.9077 26.25 31.34ZM27.25 57.8896C30.7528 75.9477 42.6511 88.9833 49.9536 94.5H27.25V57.8896ZM26.25 94.5V57.0628C24.7118 64.507 21.5561 71.374 17.8933 77.264C13.1317 84.9211 7.49489 90.9567 3.37871 94.5H26.25Z" fill="#071C35"/>
</svg>
