<svg width="86" height="102" viewBox="0 0 86 102" fill="none" xmlns="http://www.w3.org/2000/svg">
<path fill-rule="evenodd" clip-rule="evenodd" d="M12.0538 15.4956C5.56267 23.2404 2.45231 32.5441 1.58254 38.7291L0.417533 38.5652C1.31247 32.2012 4.49623 22.6813 11.1521 14.7399C17.8241 6.77928 27.9828 0.411865 42.7647 0.411865C57.546 0.411865 67.8009 6.77852 74.5945 14.7358C81.3725 22.6749 84.7046 32.1928 85.6989 38.5564L84.5365 38.738C83.57 32.5525 80.3138 23.2468 73.6997 15.4997C67.1011 7.7707 57.16 1.58834 42.7647 1.58834C28.3702 1.58834 18.5289 7.76994 12.0538 15.4956ZM38.0301 18.5807C39.2301 19.7607 40.2787 21.0187 40.8824 21.8236L39.9412 22.5295C39.3685 21.7658 38.3582 20.5533 37.2052 19.4195C36.0382 18.2719 34.7843 17.265 33.7227 16.8404L34.1597 15.7481C35.451 16.2646 36.8442 17.4145 38.0301 18.5807ZM52.4684 16.805C49.2901 18.6211 47.3649 21.3504 46.8203 22.4396L45.768 21.9135C46.3999 20.6498 48.4747 17.732 51.8847 15.7835L52.4684 16.805ZM34.4012 22.9233C36.8732 24.5812 39.2984 26.4149 40.7793 27.5996L40.0443 28.5183C38.584 27.35 36.1856 25.5366 33.7459 23.9004C31.2821 22.248 28.8544 20.8308 27.309 20.3892L27.6322 19.258C29.381 19.7577 31.9533 21.2816 34.4012 22.9233ZM58.27 20.3727C52.2654 22.6821 48.0745 26.728 46.7585 28.4201L45.8298 27.6978C47.2589 25.8604 51.617 21.671 57.8477 19.2746L58.27 20.3727ZM42.1765 60.4386C39.4338 60.6941 38.2921 62.7168 38.0703 63.8259L38.0589 63.883V97.4707C38.0589 99.1151 38.8767 100.174 39.8823 100.795C40.8565 101.396 42.0008 101.588 42.7647 101.588C46.424 101.588 47.8215 98.9435 48.0509 97.5674L48.0589 97.5194V63.828L48.0168 63.7228C47.5921 62.6611 46.1055 60.6886 43.353 60.4382V22.1766H42.1765V60.4386ZM16.8266 27.4733C26.8878 26.5151 36.941 31.0534 40.7259 33.4439L40.0977 34.4386C36.4317 32.1232 26.6417 27.7204 16.9382 28.6445L16.8266 27.4733ZM68.6471 28.6472C56.9987 28.6472 49.0889 32.5336 46.6528 34.4075L45.9355 33.475C48.5975 31.4273 56.7661 27.4707 68.6471 27.4707V28.6472ZM58.8663 35.4826C53.7034 35.9887 49.1629 37.7263 46.5798 39.1614L46.0085 38.1329C48.7195 36.6268 53.4143 34.835 58.7515 34.3117C64.0935 33.788 70.126 34.5318 75.4491 38.1611L74.7863 39.1332C69.7564 35.7037 64.0242 34.9769 58.8663 35.4826ZM27.0812 34.5612C32.5988 35.0483 37.6652 36.7163 40.6606 38.1141L40.163 39.1802C37.276 37.8329 32.3424 36.2068 26.9777 35.7331C21.6081 35.259 15.8852 35.9456 11.3374 39.1291L10.6627 38.1653C15.5266 34.7605 21.5684 34.0745 27.0812 34.5612ZM59.9726 42.5987C54.5076 41.9294 49.4523 42.8566 46.4909 43.9074L46.0974 42.7987C49.2144 41.6926 54.4533 40.7375 60.1157 41.4309C65.7888 42.1257 71.9159 44.4805 76.738 50.0259L75.8503 50.7979C71.2606 45.5197 65.427 43.2667 59.9726 42.5987ZM8.23115 49.9959C19.2786 38.9485 34.4163 40.6015 40.6085 42.7987L40.2151 43.9074C34.2504 41.7909 19.6627 40.2282 9.06304 50.8278L8.23115 49.9959ZM25.8716 48.1834C31.5121 46.6122 37.0422 46.1949 40.4291 46.2945L40.3945 47.4704C37.1148 47.374 31.7037 47.7801 26.1873 49.3168C20.6637 50.8554 15.1066 53.5073 11.45 57.8496L10.5501 57.0918C14.4229 52.4929 20.2384 49.7526 25.8716 48.1834ZM59.7733 49.5639C54.4982 47.993 49.3786 47.4707 46.2942 47.4707V46.2942C49.4842 46.2942 54.7175 46.8308 60.1091 48.4363C65.4945 50.0401 71.1021 52.7295 74.9691 57.0799L74.0898 57.8615C70.4273 53.7412 65.0546 51.1366 59.7733 49.5639ZM1.58577 48.5929C3.90337 73.623 25.3425 83.3824 35.8026 85.1258L35.6092 86.2862C24.8928 84.5002 2.80259 74.4949 0.414307 48.7014L1.58577 48.5929ZM85.1152 48.7014C82.7269 74.4949 60.6367 84.5002 49.9203 86.2862L49.7269 85.1258C60.1869 83.3824 81.6261 73.623 83.9437 48.5929L85.1152 48.7014ZM68.7981 64.923C60.4352 55.631 50.2235 52.5535 46.2384 52.1739L46.3499 51.0028C50.6001 51.4075 61.0942 54.6045 69.6726 64.136L68.7981 64.923ZM16.4324 64.1506C24.0867 55.0612 35.5386 51.6047 40.3388 51.0046L40.4848 52.172C35.8732 52.7485 24.7369 56.1154 17.3323 64.9084L16.4324 64.1506ZM21.7393 71.1948C30.249 61.7395 37.538 57.3575 40.2006 56.3334L40.623 57.4315C38.1876 58.3682 31.0452 62.6136 22.6137 71.9818L21.7393 71.1948ZM64.0795 71.9672C56.6055 63.0919 48.9178 58.5655 46.0757 57.4286L46.5126 56.3363C49.5528 57.5524 57.3945 62.2024 64.9794 71.2094L64.0795 71.9672ZM39.2353 64.0038V97.4707C39.2353 98.6498 39.7901 99.3554 40.5001 99.7936C41.2416 100.251 42.1561 100.412 42.7647 100.412C45.6494 100.412 46.6958 98.4128 46.8824 97.4191V64.0614C46.4923 63.2034 45.1855 61.5883 42.7647 61.5883C40.3423 61.5883 39.42 63.207 39.2353 64.0038ZM42.1765 97.4707V64.5295H43.353V97.4707H42.1765Z" fill="#071C35"/>
</svg>
