<svg width="76" height="391" viewBox="0 0 76 391" fill="none" xmlns="http://www.w3.org/2000/svg">
<path fill-rule="evenodd" clip-rule="evenodd" d="M69.3353 51.7155C69.2903 51.8168 69.2449 51.9195 69.199 52.0238C68.9051 52.6915 68.5911 53.4258 68.2415 54.3049L75.9454 54.2081V0C75.1458 0.361297 74.3925 0.662229 73.6766 0.912846C70.0937 2.16708 67.4462 2.16113 64.6005 2.15472C64.3966 2.15426 64.1917 2.1538 63.9853 2.1538L12.0077 2.1538C11.7935 2.1538 11.5821 2.15427 11.3728 2.15473C8.45583 2.16115 5.94728 2.16668 2.3164 0.898789C1.6068 0.650997 0.854324 0.354567 0.047554 0V55.5633L7.60881 56.7249C7.60881 56.7095 7.60881 56.6941 7.61495 56.6849C7.61845 56.6797 7.62395 56.6765 7.63259 56.6765L8.27458 56.8217C8.27458 56.8217 8.25606 56.7886 8.222 56.7249C8.14771 56.586 7.99949 56.3019 7.80829 55.8997C7.79037 55.862 7.77208 55.8232 7.75343 55.7835C7.7146 55.7007 7.67425 55.6136 7.63259 55.5222C7.4912 55.212 7.33486 54.8534 7.1726 54.4544C7.15942 54.4219 7.1462 54.3893 7.13295 54.3563C6.31512 52.3233 5.36668 49.2888 5.42127 46.2463V14.8104L35.167 14.8104V47.9645L41.0162 49.6827V14.8104L70.7381 14.8104V44.5281C70.7619 47.1659 70.0724 49.7069 69.3353 51.7155ZM73.007 44.5182C73.0304 47.3043 72.3638 49.9282 71.6454 51.9931L73.6766 51.9676V3.30327C70.09 4.43707 67.3324 4.43033 64.6089 4.42367C64.4009 4.42316 64.1932 4.42265 63.9853 4.42265L12.0077 4.42265C11.7955 4.42265 11.5849 4.42313 11.3752 4.4236C8.56302 4.42994 5.92764 4.43589 2.3164 3.28943V53.6164L4.5594 53.961C3.82893 51.8885 3.10449 49.1039 3.15243 46.2263V12.5416L37.4358 12.5416V46.2662L38.7474 46.6515V12.5416L73.007 12.5416V44.5182ZM16.2638 109.166L75.9454 77.1981V72.7695L11.9839 64.0575C6.98421 63.374 4.86799 62.9437 2.3164 61.8901C1.61584 61.6008 0.882446 61.2645 0.047554 60.8631V70.4947C0.632172 70.3769 1.40984 70.2978 2.3164 70.2539C5.13387 70.1176 9.19634 70.3215 12.5783 70.7609L51.3357 76.0849L0.0713348 103.479V108.61L49.1244 135.569L13.363 140.505C9.87386 140.996 5.744 141.089 2.3164 140.707C1.51614 140.617 0.754158 140.502 0.047554 140.36V156.816C0.876175 156.436 1.6114 156.105 2.3164 155.813C4.92916 154.728 7.12698 154.158 12.1265 153.452L75.9454 144.45V141.11L16.2638 109.166ZM73.6766 142.469L11.4573 109.167L73.6766 75.8396V74.7503L11.6765 66.3054C8.4901 65.8698 6.3475 65.5215 4.49172 65.0238C3.72546 64.8183 3.01841 64.5901 2.3164 64.328V67.9826C3.33635 67.9364 4.4566 67.9331 5.59151 67.9603C7.94019 68.0166 10.5521 68.2097 12.8706 68.511L12.8789 68.512L58.5745 74.7891L2.34018 104.839V107.268L56.2201 136.879L13.6788 142.752C13.6776 142.752 13.6764 142.753 13.6753 142.753C10.1282 143.251 5.92104 143.364 2.3164 142.988V153.369C3.03234 153.094 3.75473 152.847 4.53561 152.62C6.4293 152.07 8.59923 151.659 11.8096 151.206L73.6766 142.479V142.469ZM10.6048 166.69C6.79344 164.921 4.86115 163.87 2.3164 161.951C1.63891 161.44 0.917999 160.868 0.106674 160.204C0.0870209 160.188 0.0673141 160.172 0.047554 160.156V170.223L27.8435 182.88V208.677L0.047554 221.503V238.516C0.153137 238.404 0.257294 238.294 0.360115 238.186C1.06388 237.447 1.70518 236.791 2.3164 236.197C5.21545 233.377 7.43745 231.926 12.4356 229.392L75.9454 199.965V196.601L10.6048 166.69ZM73.6766 198.058L9.64984 168.748C6.39256 167.237 4.41948 166.206 2.3164 164.752V168.763L30.1123 181.42V210.129L2.3164 222.955V233.108C2.91776 232.583 3.52316 232.094 4.16024 231.622C6.10644 230.181 8.27663 228.957 11.4098 227.368L11.4455 227.35L73.6766 198.516V198.058ZM0.047554 250.93L27.8435 263.587V289.384L0.047554 302.21V319.247C0.875847 318.371 1.61589 317.609 2.3164 316.928C5.21545 314.108 7.43745 312.657 12.4356 310.124L75.9454 280.672V277.308L10.6048 247.397C6.79344 245.629 4.86115 244.577 2.3164 242.658C1.76704 242.244 1.18915 241.789 0.557648 241.278C0.410347 241.159 0.260124 241.037 0.106674 240.911C0.0870209 240.895 0.0673141 240.879 0.047554 240.863V250.93ZM2.3164 245.459V249.47L30.1123 262.127L30.1123 290.836L2.3164 303.662V313.839C2.91776 313.315 3.52316 312.825 4.16025 312.354C6.10645 310.912 8.27663 309.688 11.4098 308.1L11.4452 308.082L73.6766 279.223V278.765L9.64984 249.455C6.39256 247.944 4.41948 246.913 2.3164 245.459ZM33.474 356.157C34.7814 354.796 35.5474 353.998 35.5474 353.998L35.8565 357.241C37.4258 368.179 43.6318 377.496 55.1639 377.496C76.1188 377.496 76.0363 352.717 75.9962 340.672C75.9946 340.171 75.993 339.691 75.993 339.236V322.587C75.1933 322.948 74.4401 323.249 73.7241 323.499C70.1412 324.754 67.4938 324.748 64.6481 324.741C64.4442 324.741 64.2392 324.74 64.0329 324.74H12.0077C11.7935 324.74 11.5821 324.741 11.3728 324.741C8.45583 324.748 5.94728 324.753 2.3164 323.485C1.6068 323.238 0.854324 322.941 0.047554 322.587V339.575C0.853775 339.239 1.60635 338.955 2.3164 338.715C6.21341 337.397 8.82982 337.397 12.0077 337.397H35.381C35.3445 338.018 35.2452 338.772 34.9048 339.666C34.3572 341.104 33.1859 342.908 30.6492 345.117C16.0974 357.628 6.91926 367.623 0 375.343V391C0.201904 390.791 1.01527 389.946 2.26884 388.641C8.79585 381.851 27.2565 362.63 33.474 356.157ZM2.26884 385.367C5.8177 381.674 11.288 375.98 16.6903 370.356C21.0415 365.826 25.3467 361.343 28.5641 357.994L33.9048 352.433L33.9095 352.428L33.9106 352.427C33.9109 352.427 33.911 352.427 35.5474 353.998L33.9106 352.427L36.8678 349.348C36.7754 347.832 36.7373 346.238 36.7293 344.736C36.7223 343.435 36.7379 342.189 36.7618 341.102C36.6934 341.251 36.6198 341.403 36.5404 341.558C35.7204 343.155 34.3545 344.899 32.1391 346.828L32.1338 346.833L32.1284 346.837C18.0833 358.913 9.08762 368.619 2.26884 376.211V385.367ZM37.7854 335.152H73.7048L73.7241 335.647V325.89C70.1375 327.024 67.3799 327.017 64.6564 327.01C64.4485 327.01 64.2407 327.009 64.0329 327.009H12.0077C11.7955 327.009 11.5849 327.01 11.3752 327.01C8.56303 327.016 5.92766 327.022 2.3164 325.876V336.33C6.16976 335.131 8.91263 335.128 12.0077 335.128H37.7868L37.7854 335.152ZM73.7242 343.99C73.1641 352.583 70.7155 358.1 67.3977 361.588C63.2901 365.906 58.2672 366.67 55.2984 366.816L55.2846 366.816C48.9956 367.085 41.1721 364.377 38.0574 355.999L38.0675 355.992C38.0518 355.955 38.0299 355.903 38.002 355.838L38.1099 356.971C38.857 362.124 40.6728 366.721 43.492 369.988C46.2696 373.208 50.0868 375.228 55.1639 375.228C60.111 375.228 63.5826 373.722 66.103 371.437C68.6718 369.108 70.4248 365.81 71.5933 361.971C73.3798 356.102 73.6824 349.414 73.7242 343.99ZM40.0093 354.757C40.0276 354.804 40.0462 354.849 40.0651 354.894C40.1308 355.044 40.1738 355.148 40.1941 355.198C40.1949 355.2 40.1956 355.202 40.1963 355.204C40.204 355.223 40.2078 355.232 40.2078 355.232L40.184 355.208C40.1876 355.218 40.1913 355.228 40.1949 355.237C40.1956 355.239 40.1963 355.241 40.197 355.243C40.2512 355.388 40.3071 355.531 40.3645 355.672C43.139 362.476 49.6524 364.786 55.1876 364.549C60.6327 364.283 72.4739 361.791 71.5228 337.421H39.1616C39.1616 337.421 38.4414 350.757 40.0093 354.757ZM30.877 262.527L61.2373 276.372L30.877 290.444L30.877 262.527ZM30.877 181.844L61.2373 195.689L30.877 209.761V181.844ZM33.1459 286.891L55.8059 276.389L33.1459 266.055V286.891ZM33.1459 206.209V185.372L55.8059 195.706L33.1459 206.209Z" fill="white" fill-opacity="0.1"/>
</svg>
