<svg width="143" height="29" viewBox="0 0 143 29" fill="none" xmlns="http://www.w3.org/2000/svg">
<path d="M20.7735 25.505L20.349 28.3173H0.0441971C0.884333 26.3717 0.831272 25.2751 0.831272 23.869V4.53702C0.831272 3.17511 0.884333 1.98124 0.0441971 0.0887178H6.12855H19.8537L19.8891 2.95402C19.5177 2.80368 19.217 2.67103 18.9428 2.54722C18.2088 2.27307 17.2803 2.01661 16.3163 2.02545C14.7775 2.02545 8.32175 2.02545 5.45644 2.02545V13.0799H18.2L17.5721 15.2554H5.45644V26.3187C7.79998 26.3187 15.2905 26.3187 16.9442 26.3187C18.8809 26.354 20.8088 25.2574 20.8088 25.2574L20.7558 25.4962C20.7558 25.505 20.7646 25.505 20.7735 25.505ZM51.3367 28.3173C51.6109 26.9289 51.6109 24.9656 51.3898 23.3649L49.5857 10.0642L39.734 28.3084H37.8592L27.8483 9.24178L25.9027 23.6567C25.6905 25.3193 25.6286 27.4241 25.8054 28.3173H22.2857C22.9666 26.8758 23.1347 26.2479 23.453 23.8778L26.6367 0.0887178H28.2551L39.9374 22.286L51.6109 0.0887178H52.8313L56.1211 23.8248C56.4483 26.186 56.6959 26.867 57.3503 28.3173H51.3367ZM80.9891 28.3173L76.302 17.9792H66.8748L62.2496 28.3173H61.8517H58.5884H58.5707C59.7381 26.867 60.136 26.1948 60.9585 24.3908L71.8891 0.0887178H73.1184L83.8721 23.7098C85.0218 26.018 85.5612 26.7343 87.2061 28.3173H80.9891ZM110.482 28.3173L105.795 17.9792H96.368L91.7428 28.3173H91.3537H88.0816H88.0639C89.2313 26.867 89.6292 26.1948 90.4517 24.3908L101.382 0.0887178H102.612L113.374 23.7098C114.524 26.018 115.063 26.7343 116.708 28.3173H110.482ZM137.207 28.335C134.386 25.7615 130.734 22.3479 126.162 16.9357C124.853 15.4057 123.933 15.2112 123.341 15.1758V23.869C123.341 25.2663 123.341 26.3717 124.137 28.3173H117.929C118.769 26.3717 118.716 25.2751 118.716 23.869V4.51933C118.716 3.15743 118.769 1.96355 117.929 0.0710308H124.013C128.169 0.0710308 137.995 -0.300398 137.995 7.81797C137.995 12.1071 134.59 14.4153 130.593 14.9989L129.407 15.1139C129.407 15.1139 142.372 27.7867 142.929 28.335H137.207ZM129.858 13.3806L129.85 13.3894C132.467 12.3989 133.352 9.91389 133.263 7.80913C133.166 5.78396 132.255 1.37987 123.35 1.73362V13.7697C123.35 13.7697 128.337 14.0438 129.735 13.4336C129.814 13.3982 129.858 13.3806 129.858 13.3806ZM97.2701 16.0071H104.884L101.046 7.57919L97.2701 16.0071ZM67.7857 16.0071H75.4L71.5619 7.57919L67.7857 16.0071Z" fill="white"/>
</svg>
